# xmcd CD database file
#
# Track frame offsets:
#	150
#	21720
#	46197
#	72968
#	94293
#
# Disc length: 1631 seconds
#
# Revision: 0
# Processed by: cddbd v1.5.2PL0 Copyright (c) Steve Scherf et al.
# Submitted via: CDex 1.50
#
DISCID=42065d05
DTITLE=Tony Royster JR - The Time Has Come
DYEAR=2007
DGENRE=Jazz
TTITLE0=Y Not
TTITLE1=What Time Is Itp
TTITLE2=Cause And Effect
TTITLE3=10 Minutes
TTITLE4=Off The Top
EXTD=YEAR: 2007
EXTT0=
EXTT1=
EXTT2=
EXTT3=
EXTT4=
PLAYORDER=
